<svg width="479" height="479" viewBox="0 0 479 479" fill="none" xmlns="http://www.w3.org/2000/svg">
<path d="M472 239.5C472 367.906 367.906 472 239.5 472C111.094 472 7 367.906 7 239.5C7 111.094 111.094 7 239.5 7C367.906 7 472 111.094 472 239.5Z" fill="#1F295D"/>
<path d="M151.452 277.536C143.687 277.536 136.817 275.701 130.844 272.032C124.871 268.277 120.22 262.987 116.892 256.16C113.564 249.248 111.9 241.056 111.9 231.584C111.9 222.453 113.564 214.389 116.892 207.392C120.305 200.309 125.084 194.805 131.228 190.88C137.457 186.869 144.711 184.864 152.988 184.864C157.255 184.864 161.137 185.291 164.636 186.144C168.135 186.912 171.42 188.021 174.492 189.472L170.78 199.712C168.135 198.432 165.404 197.408 162.588 196.64C159.857 195.872 156.615 195.488 152.86 195.488C147.399 195.488 142.492 196.896 138.14 199.712C133.873 202.528 130.503 206.581 128.028 211.872C125.553 217.163 124.316 223.563 124.316 231.072C124.316 238.24 125.511 244.512 127.9 249.888C130.375 255.264 133.745 259.445 138.012 262.432C142.364 265.419 147.313 266.912 152.86 266.912C157.041 266.912 160.668 266.4 163.74 265.376C166.812 264.352 169.799 263.029 172.7 261.408L176.412 271.52C173.255 273.227 169.628 274.677 165.532 275.872C161.521 276.981 156.828 277.536 151.452 277.536Z" fill="white"/>
<path d="M204.486 275.575C200.306 275.575 196.639 275.465 193.486 275.245C190.406 275.025 187.326 274.768 184.246 274.475V197.915C187.692 197.548 191.066 197.291 194.366 197.145C197.666 196.925 201.442 196.815 205.696 196.815C212.296 196.815 217.979 197.841 222.746 199.895C227.586 201.948 231.546 204.771 234.626 208.365C237.779 211.958 240.089 216.138 241.556 220.905C243.096 225.598 243.866 230.658 243.866 236.085C243.866 241.438 243.096 246.498 241.556 251.265C240.016 256.031 237.632 260.248 234.406 263.915C231.252 267.508 227.182 270.368 222.196 272.495C217.282 274.548 211.379 275.575 204.486 275.575ZM204.816 266.445C211.416 266.445 216.806 265.161 220.986 262.595C225.166 260.028 228.246 256.471 230.226 251.925C232.206 247.305 233.196 242.025 233.196 236.085C233.196 230.805 232.206 225.855 230.226 221.235C228.246 216.615 225.202 212.911 221.096 210.125C216.989 207.265 211.746 205.835 205.366 205.835C203.239 205.835 201.296 205.908 199.536 206.055C197.776 206.128 196.162 206.238 194.696 206.385V265.895C196.236 266.115 197.849 266.261 199.536 266.335C201.222 266.408 202.982 266.445 204.816 266.445ZM259.226 274.695V197.695H305.426V206.715H269.676V230.145H300.476V238.945H269.676V265.675H305.426V274.695H259.226ZM349.832 276.015C343.158 276.015 337.255 274.438 332.122 271.285C326.988 268.058 322.992 263.511 320.132 257.645C317.272 251.705 315.842 244.665 315.842 236.525C315.842 228.678 317.272 221.748 320.132 215.735C323.065 209.648 327.172 204.918 332.452 201.545C337.805 198.098 344.038 196.375 351.152 196.375C354.818 196.375 358.155 196.741 361.162 197.475C364.168 198.135 366.992 199.088 369.632 200.335L366.442 209.135C364.168 208.035 361.822 207.155 359.402 206.495C357.055 205.835 354.268 205.505 351.042 205.505C346.348 205.505 342.132 206.715 338.392 209.135C334.725 211.555 331.828 215.038 329.702 219.585C327.575 224.131 326.512 229.631 326.512 236.085C326.512 242.245 327.538 247.635 329.592 252.255C331.718 256.875 334.615 260.468 338.282 263.035C342.022 265.601 346.275 266.885 351.042 266.885C354.635 266.885 357.752 266.445 360.392 265.565C363.032 264.685 365.598 263.548 368.092 262.155L371.282 270.845C368.568 272.311 365.452 273.558 361.932 274.585C358.485 275.538 354.452 276.015 349.832 276.015Z" fill="white"/>
</svg>
